<?xml version="1.0" encoding="utf-8"?>
<!-- Generator: Adobe Illustrator 27.4.1, SVG Export Plug-In . SVG Version: 6.00 Build 0)  -->
<svg version="1.1" id="Layer_1" xmlns="http://www.w3.org/2000/svg" xmlns:xlink="http://www.w3.org/1999/xlink" x="0px" y="0px"
	 viewBox="0 0 360 360" style="enable-background:new 0 0 360 360;" xml:space="preserve">
<style type="text/css">
	.st0{fill:#000823;}
	.st1{fill:#FFFFFF;stroke:#231F20;stroke-miterlimit:10;}
	.st2{fill:#FFFFFF;}
	.st3{fill:#231F20;}
	.st4{fill:#FFFFFF;stroke:#231F20;stroke-width:0.5;stroke-miterlimit:10;}
	.st5{fill:none;stroke:#231F20;stroke-width:0.75;stroke-miterlimit:10;}
	.st6{fill:#231F20;stroke:#231F20;stroke-width:0.75;stroke-miterlimit:10;}
	.st7{fill:#FFC81A;}
	.st8{fill:#00AEEF;}
	.st9{fill:#ED1C24;}
	.st10{stroke:#231F20;stroke-width:0.75;stroke-miterlimit:10;}
	.st11{fill:#FFB600;}
	.st12{fill:#FF0000;}
	.st13{fill:#0600FF;}
	.st14{fill:none;stroke:#231F20;stroke-width:0.1;stroke-miterlimit:10;}
	.st15{fill:#00BC1F;}
	.st16{fill:#006CED;}
	.st17{fill:url(#SVGID_1_);}
	.st18{fill:url(#SVGID_00000077320308435136701180000005036979785371377063_);}
	.st19{fill:#06BC20;}
	.st20{fill:#DA3639;}
	.st21{fill:#F89937;}
	.st22{fill:none;stroke:#231F20;stroke-width:2;stroke-miterlimit:10;}
	.st23{fill:none;stroke:#231F20;stroke-width:2.5;stroke-miterlimit:10;}
	.st24{fill:#FB5EB7;}
	.st25{fill:#16C2F1;}
	.st26{fill:#F9DA70;}
	.st27{fill:#88D072;}
	.st28{fill:#5E7BEA;}
	.st29{clip-path:url(#SVGID_00000168078197710061215920000016544699110306620806_);}
</style>
<g>
	<g>
		<path class="st24" d="M112,183.88c0-2.1,0.64-5.3,1.37-8.63c0.85-3.84,1.68-7.96,1.62-10.88c0.73,0,2.29-0.37,3.23-0.37
			c0.73,0,1.28,0.21,1.59,0.88c1.07-0.73,2.65-1.37,4.39-1.37c3.02,0,5.3,2.01,5.3,6.22c0,5.61-3.9,10.79-9.3,10.79
			c-1.04,0-1.83-0.18-2.47-0.4c-0.43,2.47-0.7,4.79-0.55,7.04c-0.94,0.21-1.49,0.31-2.13,0.31C112.86,187.48,112,186.35,112,183.88z
			 M123.95,170.59c0-1.49-0.67-2.41-2.04-2.41c-0.55,0-1.22,0.12-1.92,0.31c-0.21,1.59-0.79,4.57-1.43,7.44
			c0.34,0.03,0.64,0.06,0.98,0.06C122.31,175.98,123.95,173.91,123.95,170.59z"/>
		<path class="st25" d="M127.52,180.19c0-6.16,3.57-10.58,8.38-10.58c2.41,0,5,1.25,5,4.73c0,4.02-3.17,7.04-8.14,7.47
			c0.49,1.28,2.13,2.26,4.05,2.26c3.11,0,5-1.19,5.98-4.18c0.73-2.44,3.84-0.24,3.05,1.92c-1.19,3.41-4.33,6.13-9.88,6.13
			C131.42,187.93,127.52,185.68,127.52,180.19z M136.66,175.01c0-0.88-0.49-1.49-1.16-1.49c-1.55,0-2.59,2.68-2.84,5.37
			C135.05,178.6,136.66,176.68,136.66,175.01z"/>
		<path class="st26" d="M141.26,180.19c0-6.16,3.57-10.58,8.38-10.58c2.41,0,5,1.25,5,4.73c0,4.02-3.17,7.04-8.14,7.47
			c0.49,1.28,2.13,2.26,4.05,2.26c3.11,0,5-1.19,5.98-4.18c0.73-2.44,3.84-0.24,3.05,1.92c-1.19,3.41-4.33,6.13-9.88,6.13
			C145.16,187.93,141.26,185.68,141.26,180.19z M150.41,175.01c0-0.88-0.49-1.49-1.16-1.49c-1.55,0-2.59,2.68-2.84,5.37
			C148.79,178.6,150.41,176.68,150.41,175.01z"/>
		<path class="st24" d="M159.92,179.67c-0.52,3.6-0.64,4.39-0.64,7.8c-1.13,0.09-1.71,0.31-2.93,0.31c-1.4,0-1.92-0.82-1.92-2.87
			c0-4.7,2.96-14.12,2.96-20.58c0.79,0,2.29-0.34,2.96-0.34c1.43,0,1.89,1.1,1.89,2.77c0,1.31-0.31,2.93-0.67,4.6
			c0.67-0.82,2.19-1.74,3.63-1.74c2.32,0,3.96,1.56,3.96,4.21c0,2.93-1.74,4.94-4.36,5.79c0.7,3.08,1.92,4.42,3.23,4.42
			c1.43,0,2.53-1.8,3.29-4.18c0.61-2.01,4.12-0.67,3.05,1.92c-1.31,3.2-3.57,6.13-7.5,6.13C163.36,187.93,161.5,185.4,159.92,179.67
			z M164.49,175.43c0-0.85-0.52-1.25-1.28-1.25c-0.61,0-1.37,0.24-2.13,1.04c-0.18,0.98-0.37,1.86-0.55,2.9
			C162.6,178.24,164.49,177.17,164.49,175.43z"/>
		<path class="st27" d="M169.76,181.13c0-5.43,2.8-11.52,7.74-11.52c1.86,0,2.96,0.91,3.54,2.59c0.09-0.55,0.12-1.22,0.12-1.77
			c0.98,0,2.04-0.34,2.84-0.34c1.37,0,1.71,1.07,1.71,2.04c0,2.23-1.92,7.53-1.92,10.15c0,0.88,0.4,1.77,1.43,1.77
			c1.43,0,2.53-1.8,3.29-4.18c0.64-2.01,4.05-0.67,3.05,1.92c-1.25,3.38-3.48,6.13-7.47,6.13c-2.04,0-3.87-0.67-4.72-2.53
			c-0.98,1.46-2.38,2.53-4.45,2.53C172.35,187.93,169.76,186.32,169.76,181.13z M179.73,176.96c0-1.65-0.46-2.96-1.59-2.96
			c-1.95,0-3.26,3.69-3.26,6.49c0,1.62,0.46,2.9,1.59,2.9C178.42,183.39,179.73,179.82,179.73,176.96z"/>
		<path class="st28" d="M187.01,181.07c0-3.96,2.35-10.91,2.59-15.79c0.03-0.37,0.03-0.64,0.03-0.95c0.7,0,1.68-0.34,2.62-0.34
			c1.37,0,2.13,0.64,2.13,2.47c0,0.85-0.28,3.08-0.88,5.37c0.61-0.94,2.1-2.23,4.02-2.23c2.93,0,4.6,2.56,4.6,6.65
			c0,6.89-3.66,11.68-8.93,11.68C189.78,187.93,187.01,185.92,187.01,181.07z M197.07,177.02c0-1.68-0.46-3.02-1.58-3.02
			c-1.95,0-3.26,3.72-3.26,6.46c0,1.71,0.49,2.93,1.55,2.93C195.82,183.39,197.07,179.82,197.07,177.02z"/>
	</g>
	<g>
		<path class="st28" d="M123.65,195.72c0,2.95-2.59,5.14-6.16,5.14h-1.9l-0.62,3.44h-2.46l2.17-12.31h4.56
			C121.87,191.99,123.65,193.4,123.65,195.72z M121.18,196.09c0-1.14-0.87-1.81-2.25-1.81h-2.19l-0.76,4.33h2.17
			C119.9,198.6,121.18,197.46,121.18,196.09z"/>
		<path class="st24" d="M128.69,191.45l-2.28,12.86h-2.37l2.28-12.86H128.69z"/>
		<path class="st26" d="M138.98,195.67l-1.52,8.64h-2.37l0.09-0.51c-0.76,0.44-1.63,0.69-2.61,0.69c-2.16,0-3.59-1.52-3.59-3.8
			c0-2.84,2.52-5.2,5.18-5.2c0.96,0,1.76,0.25,2.35,0.69l0.09-0.51H138.98z M135.61,201.37l0.47-2.77c-0.42-0.8-1.14-1.07-1.92-1.07
			c-1.52,0-2.77,1.38-2.77,2.84c0,1.23,0.76,2.06,1.9,2.06C134.07,202.44,134.89,202.17,135.61,201.37z"/>
		<path class="st25" d="M142.25,200c-0.25,1.41,0.47,2.35,1.81,2.35c0.98,0,1.79-0.54,2.14-1.38h2.43
			c-0.65,2.08-2.72,3.53-4.94,3.53c-2.75,0-4.27-1.81-3.8-4.51c0.45-2.57,2.81-4.51,5.4-4.51c2.23,0,3.78,1.45,3.69,3.53h-2.43
			c-0.04-0.83-0.67-1.38-1.65-1.38C143.54,197.64,142.49,198.67,142.25,200z"/>
		<path class="st27" d="M158.62,200.68h-6.28c0.05,1,0.62,1.76,1.97,1.76c0.63,0,1.16-0.16,1.47-0.49h2.63
			c-0.8,1.57-2.52,2.55-4.49,2.55c-2.86,0-4.31-2.05-3.89-4.51c0.45-2.64,2.74-4.51,5.36-4.51
			C158.09,195.49,159.47,197.48,158.62,200.68z M152.66,199.07h3.93c0.09-1.14-0.49-1.61-1.5-1.61
			C153.86,197.46,153.06,198.15,152.66,199.07z"/>
		<path class="st28" d="M159.27,203c0-0.78,0.65-1.38,1.43-1.38c0.8,0,1.45,0.6,1.45,1.38c0,0.8-0.65,1.39-1.45,1.39
			C159.92,204.4,159.27,203.8,159.27,203z"/>
	</g>
	<g>
		<g>
			<g>
				<path class="st24" d="M216.65,164.64l-0.25,0.14c-1.36-0.73-2.44-1.36-3.52-1.82c-0.6-0.37-2.6-1.49-5.31-1.17
					c-2.87,0.33-4.62,2.05-5.09,2.53c0.18-0.37,1.93-3.92,5.86-4.62c0.69-0.12,3.59-0.54,6.01,1.46
					C215.87,162.39,216.44,163.95,216.65,164.64z"/>
			</g>
		</g>
		<g>
			<g>
				<path class="st24" d="M230.53,156.46c-0.54,0.13-1.23,0.32-2.03,0.62c-1.7,0.64-2.86,1.41-3.21,1.65
					c-0.95,0.64-1.52,1.19-2.56,2.18c-0.76,0.73-1.61,1.6-2.48,2.63c0.04-0.51,0.38-4.17,3.61-6.47c2.7-1.92,5.6-1.59,6.24-1.49
					C230.25,155.87,230.39,156.16,230.53,156.46z"/>
			</g>
		</g>
		<g>
			<g>
				<path class="st24" d="M248,176.97c-3.99-0.59-8.01-0.8-12.01-0.7c0.25-0.98,0.39-2.03,0.39-3.11c0-5.91-4.05-10.72-9.04-10.72
					c-4.32,0-7.94,3.63-8.83,8.45c-1.64-2.72-4.33-4.48-7.34-4.48c-4.99,0-9.04,4.81-9.04,10.7c0,2.2,0.56,4.25,1.53,5.94
					c-6.12,2.05-13.03,4.78-20.39,8.46c-7.63,3.81-14.17,7.85-19.62,11.65c12.09-5.64,22.74-9.8,31.18-12.81
					c6.82-2.43,15.16-5.38,26.54-8.23C231.81,179.5,240.91,177.94,248,176.97z M216.5,179.02c-3.21,0.8-6.37,1.75-9.49,2.83
					c-0.85-1.25-1.37-2.91-1.37-4.74c0-3.97,2.48-7.2,5.53-7.2c3.05,0,5.53,3.24,5.53,7.2C216.71,177.77,216.64,178.41,216.5,179.02
					z M232.26,176.44c-3.1,0.22-6.19,0.62-9.26,1.18c-0.74-1.23-1.19-2.79-1.19-4.46c0-3.98,2.48-7.22,5.53-7.22
					c3.05,0,5.53,3.24,5.53,7.22C232.88,174.34,232.65,175.46,232.26,176.44z"/>
			</g>
			<g>
				<circle class="st24" cx="210.61" cy="175.64" r="3.08"/>
			</g>
			<g>
				<path class="st24" d="M230.43,172.02c0,1.7-1.39,3.08-3.08,3.08c-1.7,0-3.08-1.39-3.08-3.08c0-1.7,1.39-3.08,3.08-3.08
					C229.04,168.94,230.43,170.33,230.43,172.02z"/>
			</g>
		</g>
	</g>
</g>
</svg>
