<svg version="1.1" id="Layer_1" xmlns="http://www.w3.org/2000/svg" xmlns:xlink="http://www.w3.org/1999/xlink" x="0px" y="0px"
	 width="100%" viewBox="0 0 280 101" enable-background="new 0 0 280 101" xml:space="preserve">
<path fill="#FEFEFE" opacity="1.000000" stroke="none" 
	d="
M1.000000,15.000000 
	C1.000000,10.339156 1.000000,5.678312 0.999999,1.013101 
	C94.211060,1.008734 187.422119,1.008734 281.000000,1.008734 
	C281.000000,19.685961 281.000000,38.374321 280.767761,57.403042 
	C280.335449,57.455399 280.135345,57.167397 279.845337,56.558342 
	C277.648346,53.535076 276.826660,55.886608 275.896210,57.284267 
	C273.048798,61.561558 269.125000,63.421135 264.017517,62.384445 
	C264.574310,59.153259 265.629181,56.307388 265.540833,53.497463 
	C265.471863,51.304787 263.982300,49.156780 263.023193,46.643845 
	C261.751404,42.543236 259.441986,40.135574 255.273605,40.791740 
	C251.077179,41.452328 248.532578,44.510090 248.819778,48.434029 
	C249.108047,52.372734 250.840836,56.222343 252.087616,60.063267 
	C252.424545,61.101250 254.053711,62.392860 253.800537,62.843063 
	C251.734863,66.516304 250.016098,70.826027 246.899872,73.341988 
	C243.831421,75.819389 241.147400,72.246536 238.517456,70.142860 
	C236.292038,68.362755 233.163910,66.478828 230.584610,66.668762 
	C226.920898,66.938568 224.206009,69.787582 223.461731,73.971672 
	C222.412003,73.222046 221.104538,72.417221 221.170319,71.747246 
	C222.135498,61.918453 223.353577,52.114426 224.308289,42.284767 
	C224.441788,40.910305 223.496002,39.431023 223.002075,37.617790 
	C221.376099,28.945461 213.075867,22.276728 204.383057,22.221081 
	C195.620087,22.164986 187.757645,31.019825 186.610291,38.994019 
	C184.358353,38.314018 182.466553,37.637917 180.457535,36.582901 
	C179.510178,33.934246 178.680038,31.664501 177.915817,29.005451 
	C179.111465,26.807390 180.611267,25.123075 181.272507,23.156767 
	C182.013184,20.954199 183.871002,17.929695 179.390961,16.616272 
	C177.784515,14.798750 176.143341,12.074917 174.824554,12.222962 
	C172.784088,12.452020 170.963791,14.642591 168.705139,15.967449 
	C166.907150,14.955400 165.454193,13.977282 164.000870,12.665965 
	C164.000351,11.888496 164.000168,11.444224 164.244415,10.807631 
	C163.662033,9.410124 162.835236,8.204940 161.845627,6.691679 
	C159.710175,4.952167 157.737534,3.520733 155.764893,2.089302 
	C154.484879,4.221954 152.426392,6.234017 152.073792,8.510318 
	C151.095795,14.824102 150.828049,21.247906 150.257065,27.890856 
	C148.109665,27.459368 146.668762,27.197983 145.240891,26.878468 
	C134.081802,24.381416 126.848557,29.471626 123.064415,42.135231 
	C119.455521,42.012070 118.953339,39.993210 118.976952,37.352295 
	C119.045219,29.716322 119.100014,22.076914 118.914474,14.444824 
	C118.878021,12.945627 117.741188,11.473182 117.053406,9.601647 
	C116.744720,5.665542 115.750168,2.027390 111.636871,2.169502 
	C107.501823,2.312366 107.042702,6.029809 106.830437,9.564011 
	C106.468216,15.594996 105.806633,21.608004 105.268875,27.650173 
	C88.136551,25.166674 82.135056,28.535097 78.084610,42.138130 
	C76.455399,41.029514 75.154015,40.056526 74.056168,38.891701 
	C73.269119,38.056633 72.754402,36.964890 72.061447,35.599049 
	C72.041527,32.022507 70.830627,29.481913 67.445908,29.231482 
	C63.696465,28.954067 63.019154,32.111992 62.519375,34.899876 
	C61.560818,40.246956 60.791767,45.628010 59.594967,51.063271 
	C59.294334,52.468525 59.342831,53.805477 59.371063,55.502014 
	C59.272816,56.577290 59.194832,57.292980 58.765289,58.052334 
	C56.694969,59.391102 54.976204,60.686203 53.195599,61.597019 
	C51.724895,58.696545 50.790092,55.690929 48.805744,53.768867 
	C44.999870,50.082455 40.569889,47.045712 36.452557,43.673847 
	C33.039555,40.878784 29.703726,37.989483 25.906073,34.780598 
	C28.748035,32.452805 30.916470,30.682644 33.078453,28.904640 
	C37.957146,24.892435 43.136124,21.174696 47.539902,16.695171 
	C49.021141,15.188457 49.568268,11.291296 48.699852,9.283697 
	C47.315807,6.084069 43.814579,6.316113 40.874138,7.763978 
	C39.415730,8.482096 38.112495,9.594148 36.887386,10.693308 
	C32.181274,14.915615 27.574724,19.249304 22.849396,23.449602 
	C20.610973,25.439316 18.188299,27.221746 15.551554,29.336758 
	C14.562744,23.171944 13.996649,17.862890 12.726462,12.728004 
	C12.304991,11.024151 10.264462,8.979739 8.604244,8.577870 
	C7.453107,8.299231 5.518713,10.408354 4.258780,11.754367 
	C3.535846,12.526691 3.460828,13.905496 2.745114,15.008278 
	C1.930733,15.003523 1.465366,15.001761 1.000000,15.000000 
M70.873909,18.111538 
	C71.253906,14.346113 69.901314,11.831965 65.794563,11.964367 
	C61.215656,12.111990 60.777073,15.409590 60.324242,19.102316 
	C60.967567,21.243832 61.011486,24.499054 62.404018,25.248529 
	C64.195717,26.212839 67.366051,25.786533 69.392639,24.813684 
	C71.413040,23.843805 73.591942,21.640404 70.873909,18.111538 
z"/>
<path fill="#FFFFFF" opacity="1.000000" stroke="none" 
	d="
M132.000000,102.000000 
	C88.449417,102.000000 44.898842,102.000000 1.000000,102.000000 
	C1.000000,90.981552 1.000000,79.959435 1.358273,68.505478 
	C2.296102,68.380798 3.064471,68.544258 3.425042,69.018066 
	C6.070287,72.494003 9.818665,72.915108 13.305229,71.546753 
	C16.984928,70.102608 18.324146,66.789703 18.143213,62.590080 
	C18.035568,60.091576 19.337095,57.532364 20.005083,55.000443 
	C20.571255,54.886379 21.137428,54.772320 21.703600,54.658257 
	C24.018234,57.230045 26.104271,60.066124 28.700808,62.311989 
	C32.646641,65.724922 36.687195,69.174271 41.168396,71.781693 
	C45.744545,74.444359 50.309772,73.213287 53.527172,68.878998 
	C55.567799,66.129982 57.202351,65.400917 60.446033,67.524536 
	C65.727127,70.982033 69.692314,69.489975 72.637901,63.718796 
	C73.435440,62.156200 74.175255,60.564133 75.361542,58.120495 
	C76.848625,59.904469 77.968941,60.998497 78.795006,62.281914 
	C82.747047,68.422035 88.415108,71.353271 95.606476,70.942215 
	C100.997414,70.634087 106.485298,70.307343 111.679718,68.996803 
	C114.292793,68.337532 116.456184,65.583229 118.603188,63.544880 
	C119.448318,62.742516 119.694221,61.308964 120.240089,60.102985 
	C125.367195,64.073730 130.119537,67.754242 134.571808,71.651367 
	C132.791870,73.803879 130.582321,75.535522 129.972244,77.714905 
	C128.303864,83.674881 127.309273,89.823463 126.067276,96.262703 
	C128.057800,98.418701 130.028900,100.209351 132.000000,102.000000 
z"/>
<path fill="#FEFEFE" opacity="1.000000" stroke="none" 
	d="
M281.000000,66.000000 
	C281.000000,77.967300 281.000000,89.934608 281.000000,102.000000 
	C239.645828,102.000000 198.291565,102.000000 156.506439,101.638229 
	C158.633438,99.850388 161.146057,97.353775 163.759537,97.243271 
	C167.923859,97.067200 171.075638,96.096283 173.732758,92.878769 
	C174.672592,91.740723 177.066086,90.194870 177.572205,90.555008 
	C182.789734,94.267517 187.186340,92.005814 191.767883,89.325966 
	C192.770355,88.739594 194.502060,88.760033 195.651917,89.177925 
	C200.266403,90.854958 204.401199,89.620796 208.616959,87.770325 
	C211.476349,86.515198 214.090698,86.251808 216.439392,89.471970 
	C218.726746,92.608017 221.980042,93.186295 224.743805,89.685013 
	C226.048889,88.031677 227.287903,86.190422 228.005341,84.232262 
	C231.253616,75.366272 231.672409,75.413574 239.731567,79.922287 
	C242.396454,81.413162 246.482910,81.781174 249.426331,80.939079 
	C252.124954,80.167030 254.582718,77.382233 256.381348,74.924286 
	C258.762390,71.670372 261.684174,71.236198 265.348938,70.813469 
	C269.432068,70.342484 273.351715,68.452782 277.341919,67.178726 
	C278.562317,66.789055 279.780701,66.393082 281.000000,66.000000 
z"/>
<path fill="#F7F5F6" opacity="1.000000" stroke="none" 
	d="
M134.871887,71.434753 
	C130.119537,67.754242 125.367195,64.073730 120.240089,60.102985 
	C119.694221,61.308964 119.448318,62.742516 118.603188,63.544880 
	C116.456184,65.583229 114.292793,68.337532 111.679718,68.996803 
	C106.485298,70.307343 100.997414,70.634087 95.606476,70.942215 
	C88.415108,71.353271 82.747047,68.422035 78.795006,62.281914 
	C77.968941,60.998497 76.848625,59.904469 75.361542,58.120495 
	C74.175255,60.564133 73.435440,62.156200 72.637901,63.718796 
	C69.692314,69.489975 65.727127,70.982033 60.446033,67.524536 
	C57.202351,65.400917 55.567799,66.129982 53.527172,68.878998 
	C50.309772,73.213287 45.744545,74.444359 41.168396,71.781693 
	C36.687195,69.174271 32.646641,65.724922 28.700808,62.311989 
	C26.104271,60.066124 24.018234,57.230045 21.703600,54.658257 
	C21.137428,54.772320 20.571255,54.886379 20.005083,55.000443 
	C19.337095,57.532364 18.035568,60.091576 18.143213,62.590080 
	C18.324146,66.789703 16.984928,70.102608 13.305229,71.546753 
	C9.818665,72.915108 6.070287,72.494003 3.425042,69.018066 
	C3.064471,68.544258 2.296102,68.380798 1.358273,68.036819 
	C1.000000,50.645771 1.000000,33.291542 1.000000,15.468657 
	C1.465366,15.001761 1.930733,15.003523 2.773844,15.475206 
	C3.104788,28.760727 3.003936,41.576553 3.058451,54.391720 
	C3.068898,56.847477 3.503640,59.345226 4.075462,61.744267 
	C4.881655,65.126602 6.759624,67.557884 10.718114,67.039772 
	C14.620005,66.529060 15.850801,63.711887 15.972561,60.275806 
	C16.125751,55.952705 15.997064,51.619205 16.171532,47.297520 
	C16.227942,45.900181 16.856789,44.525951 17.423084,42.389122 
	C19.845694,45.309940 21.441813,47.433754 23.241898,49.367722 
	C28.971170,55.523090 33.353077,63.123035 41.703384,66.482658 
	C47.596592,68.853699 50.385818,67.822456 53.257439,61.981308 
	C54.976204,60.686203 56.694969,59.391102 58.906998,58.378456 
	C60.259193,61.694157 61.512497,64.360146 65.327583,64.107254 
	C69.277718,63.845402 70.690231,60.924992 70.959038,57.683079 
	C71.557220,50.468834 71.756393,43.221504 72.118187,35.987659 
	C72.754402,36.964890 73.269119,38.056633 74.056168,38.891701 
	C75.154015,40.056526 76.455399,41.029514 77.992661,42.568623 
	C77.332001,49.183842 78.481049,54.852135 81.999092,60.378403 
	C83.589661,66.111046 88.113907,67.667366 92.737633,67.846542 
	C98.482574,68.069176 104.290489,67.388596 110.022736,66.696579 
	C111.414284,66.528595 112.616035,64.788406 114.117317,63.484856 
	C115.211121,60.450115 116.801704,57.715622 116.856102,54.950905 
	C117.150917,39.967529 117.065971,24.976677 117.111847,9.988400 
	C117.741188,11.473182 118.878021,12.945627 118.914474,14.444824 
	C119.100014,22.076914 119.045219,29.716322 118.976952,37.352295 
	C118.953339,39.993210 119.455521,42.012070 122.972321,42.567474 
	C122.615005,49.124298 122.857315,54.988396 126.999123,60.377110 
	C128.937698,62.769611 130.536804,65.802483 132.884567,66.582787 
	C136.663406,67.838730 140.936386,67.607887 144.972107,68.336685 
	C144.630112,69.720116 144.316635,70.772049 143.614319,71.735199 
	C140.440964,71.575859 137.656418,71.505302 134.871887,71.434753 
z"/>
<path fill="#F1F4F4" opacity="1.000000" stroke="none" 
	d="
M281.000000,65.555832 
	C279.780701,66.393082 278.562317,66.789055 277.341919,67.178726 
	C273.351715,68.452782 269.432068,70.342484 265.348938,70.813469 
	C261.684174,71.236198 258.762390,71.670372 256.381348,74.924286 
	C254.582718,77.382233 252.124954,80.167030 249.426331,80.939079 
	C246.482910,81.781174 242.396454,81.413162 239.731567,79.922287 
	C231.672409,75.413574 231.253616,75.366272 228.005341,84.232262 
	C227.287903,86.190422 226.048889,88.031677 224.743805,89.685013 
	C221.980042,93.186295 218.726746,92.608017 216.439392,89.471970 
	C214.090698,86.251808 211.476349,86.515198 208.616959,87.770325 
	C204.401199,89.620796 200.266403,90.854958 195.651917,89.177925 
	C194.502060,88.760033 192.770355,88.739594 191.767883,89.325966 
	C187.186340,92.005814 182.789734,94.267517 177.572205,90.555008 
	C177.066086,90.194870 174.672592,91.740723 173.732758,92.878769 
	C171.075638,96.096283 167.923859,97.067200 163.759537,97.243271 
	C161.146057,97.353775 158.633438,99.850388 156.037781,101.638229 
	C148.312424,102.000000 140.624832,102.000000 132.468628,102.000000 
	C130.028900,100.209351 128.057800,98.418701 126.431870,96.328613 
	C128.194168,94.591675 129.611313,93.154182 131.017914,91.727379 
	C138.976700,102.903137 145.550751,103.454826 155.132584,94.004013 
	C156.442932,92.711594 158.919830,92.096893 160.877472,92.050674 
	C170.869492,91.814751 171.752716,91.018776 171.754868,80.971085 
	C171.754913,80.746994 172.213608,80.523003 172.459717,80.300446 
	C183.345169,89.743614 183.345169,89.743614 190.163666,81.989609 
	C198.264679,87.584251 205.815109,84.290565 213.448105,79.471596 
	C215.473251,82.529961 217.237976,85.195015 219.759918,89.003639 
	C221.802124,85.998299 223.731339,83.689384 225.048630,81.072441 
	C226.380951,78.425644 226.900253,75.377693 228.152496,72.680405 
	C229.665756,69.420891 232.086929,68.799202 234.943710,71.274467 
	C235.949310,72.145760 236.841339,73.148979 237.854401,74.010635 
	C243.435791,78.757950 249.005371,78.095497 253.123444,72.048874 
	C254.778595,69.618607 256.069977,66.940605 257.485748,64.447861 
	C268.793121,67.724968 273.285217,66.169380 279.935242,56.879395 
	C280.135345,57.167397 280.335449,57.455399 280.767761,57.871700 
	C281.000000,60.370556 281.000000,62.741116 281.000000,65.555832 
z"/>
<path fill="#DD75A8" opacity="1.000000" stroke="none" 
	d="
M53.195602,61.597023 
	C50.385818,67.822456 47.596592,68.853699 41.703384,66.482658 
	C33.353077,63.123035 28.971170,55.523090 23.241898,49.367722 
	C21.441813,47.433754 19.845694,45.309940 17.423084,42.389122 
	C16.856789,44.525951 16.227942,45.900181 16.171532,47.297520 
	C15.997064,51.619205 16.125751,55.952705 15.972561,60.275806 
	C15.850801,63.711887 14.620005,66.529060 10.718114,67.039772 
	C6.759624,67.557884 4.881655,65.126602 4.075462,61.744267 
	C3.503640,59.345226 3.068898,56.847477 3.058451,54.391720 
	C3.003936,41.576553 3.104788,28.760727 3.122859,15.478201 
	C3.460828,13.905496 3.535846,12.526691 4.258780,11.754367 
	C5.518713,10.408354 7.453107,8.299231 8.604244,8.577870 
	C10.264462,8.979739 12.304991,11.024151 12.726462,12.728004 
	C13.996649,17.862890 14.562744,23.171944 15.551554,29.336758 
	C18.188299,27.221746 20.610973,25.439316 22.849396,23.449602 
	C27.574724,19.249304 32.181274,14.915615 36.887386,10.693308 
	C38.112495,9.594148 39.415730,8.482096 40.874138,7.763978 
	C43.814579,6.316113 47.315807,6.084069 48.699852,9.283697 
	C49.568268,11.291296 49.021141,15.188457 47.539902,16.695171 
	C43.136124,21.174696 37.957146,24.892435 33.078453,28.904640 
	C30.916470,30.682644 28.748035,32.452805 25.906073,34.780598 
	C29.703726,37.989483 33.039555,40.878784 36.452557,43.673847 
	C40.569889,47.045712 44.999870,50.082455 48.805744,53.768867 
	C50.790092,55.690929 51.724895,58.696545 53.195602,61.597023 
z"/>
<path fill="#4EBBBB" opacity="1.000000" stroke="none" 
	d="
M279.845337,56.558342 
	C273.285217,66.169380 268.793121,67.724968 257.485748,64.447861 
	C256.069977,66.940605 254.778595,69.618607 253.123444,72.048874 
	C249.005371,78.095497 243.435791,78.757950 237.854401,74.010635 
	C236.841339,73.148979 235.949310,72.145760 234.943710,71.274467 
	C232.086929,68.799202 229.665756,69.420891 228.152496,72.680405 
	C226.900253,75.377693 226.380951,78.425644 225.048630,81.072441 
	C223.731339,83.689384 221.802124,85.998299 219.759918,89.003639 
	C217.237976,85.195015 215.473251,82.529961 213.448105,79.471596 
	C205.815109,84.290565 198.264679,87.584251 190.163666,81.989609 
	C183.345169,89.743614 183.345169,89.743614 172.459717,80.300446 
	C172.213608,80.523003 171.754913,80.746994 171.754868,80.971085 
	C171.752716,91.018776 170.869492,91.814751 160.877472,92.050674 
	C158.919830,92.096893 156.442932,92.711594 155.132584,94.004013 
	C145.550751,103.454826 138.976700,102.903137 131.017914,91.727379 
	C129.611313,93.154182 128.194168,94.591675 126.412437,95.963257 
	C127.309273,89.823463 128.303864,83.674881 129.972244,77.714905 
	C130.582321,75.535522 132.791870,73.803879 134.571808,71.651367 
	C137.656418,71.505302 140.440964,71.575859 143.941925,71.860764 
	C145.987808,73.544075 149.690536,73.933319 146.643646,77.133713 
	C143.044800,75.258713 139.903900,72.131371 135.936264,74.757675 
	C132.257568,77.192726 131.395172,80.996758 132.516159,85.585022 
	C133.111877,87.293961 133.628769,88.646461 134.197968,90.337601 
	C137.567093,96.349068 140.873566,98.152176 145.873825,97.014900 
	C150.201431,96.030609 153.989349,91.517036 154.237289,86.540138 
	C149.906876,80.408920 150.052597,74.588974 154.281219,68.662628 
	C156.401886,67.710518 158.202301,66.834770 160.334351,66.009201 
	C161.110931,66.034500 161.555908,66.009628 162.309174,66.148468 
	C166.690826,69.807899 170.875427,73.184196 174.800156,76.839485 
	C177.619354,79.465141 180.091461,82.463432 182.703842,85.279785 
	C186.564850,82.259041 187.532303,79.665054 185.746231,75.690445 
	C182.962326,69.495338 184.001495,63.486687 188.615112,58.098186 
	C189.231079,57.675941 189.594223,57.318932 190.361450,56.899063 
	C199.058990,54.250210 202.638870,56.349117 204.360992,65.230438 
	C203.786957,66.702942 203.318146,67.813980 202.526001,68.840668 
	C201.590897,67.151695 200.979126,65.547089 200.296326,63.561272 
	C198.926346,59.169235 196.593185,57.557228 192.231552,59.960335 
	C187.024872,64.302666 186.244843,72.060036 190.148727,77.442932 
	C193.416870,81.949249 200.239059,83.203453 205.930984,80.344383 
	C211.206787,77.694328 213.537842,72.855339 211.879822,67.678925 
	C211.523239,66.249054 211.152954,65.164024 210.789032,63.691319 
	C208.282211,54.962959 206.063522,46.566006 205.979095,37.436672 
	C206.278290,35.746098 206.514862,34.392006 206.932220,32.739182 
	C209.467316,28.932928 211.981125,30.043230 213.707062,32.732979 
	C216.074173,36.421917 217.873703,40.475052 219.924835,44.805977 
	C219.314240,52.947159 219.343124,60.782555 217.853607,68.317795 
	C216.822006,73.536461 218.274719,77.563492 221.195877,82.115845 
	C222.078140,79.403625 222.960403,76.691406 223.842667,73.979187 
	C224.206009,69.787582 226.920898,66.938568 230.584610,66.668762 
	C233.163910,66.478828 236.292038,68.362755 238.517456,70.142860 
	C241.147400,72.246536 243.831421,75.819389 246.899872,73.341988 
	C250.016098,70.826027 251.734863,66.516304 253.800537,62.843063 
	C254.053711,62.392860 252.424545,61.101250 252.087616,60.063267 
	C250.840836,56.222343 249.108047,52.372734 248.819778,48.434029 
	C248.532578,44.510090 251.077179,41.452328 255.273605,40.791740 
	C259.441986,40.135574 261.751404,42.543236 262.961914,47.063736 
	C262.075195,52.307297 261.148956,56.785889 260.121277,61.754826 
	C261.276123,62.059811 262.649567,62.422527 264.023010,62.785248 
	C269.125000,63.421135 273.048798,61.561558 275.896210,57.284267 
	C276.826660,55.886608 277.648346,53.535076 279.845337,56.558342 
M217.506104,58.424507 
	C217.302673,54.601654 217.099243,50.778801 216.916855,46.205990 
	C215.287460,42.257755 215.358719,37.183388 208.664658,35.877480 
	C209.293732,40.271343 209.922791,44.665203 210.698410,49.827316 
	C210.866226,50.853016 211.034042,51.878712 211.191498,53.692238 
	C211.968735,56.727970 212.745972,59.763699 213.879593,64.191391 
	C215.459412,61.641701 216.250977,60.364185 217.506104,58.424507 
M166.137680,74.169106 
	C164.139465,72.517082 162.202393,69.680878 160.124405,69.573555 
	C158.340561,69.481422 156.066376,72.272850 154.650650,74.248817 
	C153.855820,75.358162 154.362549,77.400040 154.263519,79.716927 
	C156.628296,82.549728 158.546936,86.020645 161.465637,88.061150 
	C165.529419,90.902214 168.707504,88.793274 168.295624,83.869446 
	C168.042114,80.838989 166.971954,77.876831 166.137680,74.169106 
M252.847351,55.178333 
	C253.943848,56.714561 255.040344,58.250793 256.918030,60.881508 
	C258.126801,55.918659 259.422455,52.286591 259.712830,48.575871 
	C259.828888,47.092827 257.727875,45.436302 256.636108,43.858746 
	C255.079025,45.256260 252.815903,46.387321 252.160110,48.124985 
	C251.481720,49.922577 252.363586,52.309006 252.847351,55.178333 
z"/>
<path fill="#DD75A8" opacity="1.000000" stroke="none" 
	d="
M126.995667,60.006447 
	C122.857315,54.988396 122.615005,49.124298 123.406830,42.623390 
	C126.848557,29.471626 134.081802,24.381416 145.240891,26.878468 
	C146.668762,27.197983 148.109665,27.459368 150.257065,27.890856 
	C150.828049,21.247906 151.095795,14.824102 152.073792,8.510318 
	C152.426392,6.234017 154.484879,4.221954 155.764893,2.089302 
	C157.737534,3.520733 159.710175,4.952167 161.809753,7.090826 
	C161.996674,8.863373 162.056686,9.928696 162.054840,11.459478 
	C161.989029,26.243107 162.087021,40.562675 161.890625,54.878208 
	C161.853622,57.574715 160.643494,60.255127 159.607727,63.090347 
	C155.682037,63.507896 151.816940,62.979221 148.624283,64.203766 
	C140.321228,67.388390 133.375137,65.677254 126.995667,60.006447 
M148.899292,46.519684 
	C148.071960,42.672924 145.549896,40.201427 141.805344,40.303417 
	C140.514282,40.338581 139.304413,43.355503 137.666260,45.676117 
	C137.961502,47.557392 137.588898,50.207851 138.688568,51.162655 
	C141.110703,53.265686 147.135330,50.517746 148.899292,46.519684 
z"/>
<path fill="#DD75A7" opacity="1.000000" stroke="none" 
	d="
M81.995575,60.007000 
	C78.481049,54.852135 77.332001,49.183842 78.407593,42.622158 
	C82.135056,28.535097 88.136551,25.166674 105.268875,27.650173 
	C105.806633,21.608004 106.468216,15.594996 106.830437,9.564011 
	C107.042702,6.029809 107.501823,2.312366 111.636871,2.169502 
	C115.750168,2.027390 116.744720,5.665542 117.053406,9.601648 
	C117.065971,24.976677 117.150917,39.967529 116.856102,54.950905 
	C116.801704,57.715622 115.211121,60.450115 113.699432,63.544399 
	C109.831467,63.962158 106.272758,63.185978 103.416573,64.266609 
	C95.176834,67.384087 88.316765,65.536430 81.995575,60.007000 
M103.899651,46.518890 
	C103.058411,42.628593 100.492210,40.181896 96.710312,40.289009 
	C95.449043,40.324734 94.272476,43.351093 92.665970,45.676094 
	C92.961296,47.557453 92.588760,50.208073 93.688522,51.162880 
	C96.110847,53.265938 102.135796,50.517780 103.899651,46.518890 
z"/>
<path fill="#DB75A7" opacity="1.000000" stroke="none" 
	d="
M204.466187,64.868973 
	C202.638870,56.349117 199.058990,54.250210 190.212830,56.616104 
	C188.844681,55.139091 188.029205,53.882183 187.186996,52.184391 
	C187.096985,47.494980 187.033722,43.246449 186.970444,38.997917 
	C187.757645,31.019825 195.620087,22.164986 204.383057,22.221081 
	C213.075867,22.276728 221.376099,28.945461 222.910736,37.965202 
	C221.883560,40.587429 220.900009,42.479774 219.916443,44.372124 
	C217.873703,40.475052 216.074173,36.421917 213.707062,32.732979 
	C211.981125,30.043230 209.467316,28.932928 206.560303,32.723431 
	C203.055466,33.035774 201.131836,34.167645 201.068649,37.773155 
	C202.786530,37.773155 204.351501,37.773155 205.916489,37.773155 
	C206.063522,46.566006 208.282211,54.962959 210.436523,63.732380 
	C208.207153,64.397072 206.336670,64.633026 204.466187,64.868973 
z"/>
<path fill="#DE77A9" opacity="1.000000" stroke="none" 
	d="
M72.061447,35.599049 
	C71.756393,43.221504 71.557220,50.468834 70.959038,57.683079 
	C70.690231,60.924992 69.277718,63.845402 65.327583,64.107254 
	C61.512497,64.360146 60.259193,61.694157 59.258556,58.334789 
	C59.194832,57.292980 59.272816,56.577290 59.553391,55.199615 
	C59.818687,53.356739 59.881390,52.175854 59.944092,50.994968 
	C60.791767,45.628010 61.560818,40.246956 62.519375,34.899876 
	C63.019154,32.111992 63.696465,28.954067 67.445908,29.231482 
	C70.830627,29.481913 72.041527,32.022507 72.061447,35.599049 
z"/>
<path fill="#DE75A8" opacity="1.000000" stroke="none" 
	d="
M177.849915,29.394756 
	C178.680038,31.664501 179.510178,33.934246 180.317322,37.038666 
	C179.798645,45.570564 179.302948,53.267796 178.521729,61.152626 
	C175.402328,65.042877 172.295197,64.803749 168.884933,61.593414 
	C168.805008,56.804207 168.849030,52.401482 168.971481,47.562393 
	C169.855606,42.491524 170.502853,37.821854 171.520935,33.234486 
	C172.236923,30.008263 174.438019,28.529123 177.849915,29.394756 
z"/>
<path fill="#FCFBFB" opacity="1.000000" stroke="none" 
	d="
M177.915817,29.005451 
	C174.438019,28.529123 172.236923,30.008263 171.520935,33.234486 
	C170.502853,37.821854 169.855606,42.491524 168.640411,47.623169 
	C167.435059,48.980232 166.639191,49.840164 165.629623,50.930992 
	C165.020065,49.762749 164.325592,49.046707 164.315979,48.321571 
	C164.159714,36.548115 164.090286,24.773508 164.001221,12.999162 
	C165.454193,13.977282 166.907150,14.955400 168.759186,16.288422 
	C169.168442,17.293699 169.178635,17.944073 169.134323,19.015686 
	C170.016769,21.377615 170.487686,24.183392 172.024231,25.011169 
	C173.505844,25.809362 176.258331,24.921612 178.099869,24.038862 
	C178.811050,23.697958 178.551804,21.332647 178.816803,19.523994 
	C179.099503,18.437872 179.300125,17.717400 179.500732,16.996925 
	C183.871002,17.929695 182.013184,20.954199 181.272507,23.156767 
	C180.611267,25.123075 179.111465,26.807390 177.915817,29.005451 
z"/>
<path fill="#F7F7F7" opacity="1.000000" stroke="none" 
	d="
M164.000870,12.665964 
	C164.090286,24.773508 164.159714,36.548115 164.315979,48.321571 
	C164.325592,49.046707 165.020065,49.762749 165.629623,50.930992 
	C166.639191,49.840164 167.435059,48.980232 168.561981,48.059532 
	C168.849030,52.401482 168.805008,56.804207 168.878204,61.930153 
	C168.996750,63.102253 168.998062,63.551125 168.643967,63.961952 
	C165.375763,62.118530 162.605179,60.746960 162.000885,65.984756 
	C161.555908,66.009628 161.110931,66.034500 160.332794,65.632614 
	C159.991318,64.451561 159.983002,63.697262 159.974701,62.942970 
	C160.643494,60.255127 161.853622,57.574715 161.890625,54.878208 
	C162.087021,40.562675 161.989029,26.243107 162.368347,11.461361 
	C163.162476,10.998507 163.581238,10.999230 164.000000,10.999953 
	C164.000168,11.444224 164.000351,11.888496 164.000870,12.665964 
z"/>
<path fill="#EFF4F4" opacity="1.000000" stroke="none" 
	d="
M219.924835,44.805977 
	C220.900009,42.479774 221.883560,40.587429 222.958466,38.347672 
	C223.496002,39.431023 224.441788,40.910305 224.308289,42.284767 
	C223.353577,52.114426 222.135498,61.918453 221.170319,71.747246 
	C221.104538,72.417221 222.412003,73.222046 223.461731,73.971672 
	C222.960403,76.691406 222.078140,79.403625 221.195877,82.115845 
	C218.274719,77.563492 216.822006,73.536461 217.853607,68.317795 
	C219.343124,60.782555 219.314240,52.947159 219.924835,44.805977 
z"/>
<path fill="#F9F9F9" opacity="1.000000" stroke="none" 
	d="
M178.807251,60.965023 
	C179.302948,53.267796 179.798645,45.570564 180.434570,37.417576 
	C182.466553,37.637917 184.358353,38.314018 186.610291,38.994019 
	C187.033722,43.246449 187.096985,47.494980 187.123383,52.607010 
	C187.060349,54.313370 187.034225,55.156227 186.631378,55.957485 
	C184.983963,55.680717 183.713257,55.445553 183.483734,55.403072 
	C181.949554,57.865452 180.972641,59.433411 179.698578,60.993919 
	C179.203384,60.979321 179.005325,60.972172 178.807251,60.965023 
z"/>
<path fill="#DE79AA" opacity="1.000000" stroke="none" 
	d="
M60.980465,18.997999 
	C60.777073,15.409590 61.215656,12.111990 65.794563,11.964367 
	C69.901314,11.831965 71.253906,14.346113 70.561630,18.719978 
	C66.058571,23.220842 64.819534,23.176674 60.980465,18.997999 
z"/>
<path fill="#DE77A9" opacity="1.000000" stroke="none" 
	d="
M169.188843,18.594448 
	C169.178635,17.944073 169.168442,17.293699 169.104187,16.322351 
	C170.963791,14.642591 172.784088,12.452020 174.824554,12.222962 
	C176.143341,12.074917 177.784515,14.798750 179.390976,16.616274 
	C179.300125,17.717400 179.099503,18.437872 178.529327,19.719864 
	C174.402649,23.796946 171.698196,21.714437 169.188843,18.594448 
z"/>
<path fill="#F7F5F6" opacity="1.000000" stroke="none" 
	d="
M60.652351,19.050158 
	C64.819534,23.176674 66.058571,23.220842 70.524017,19.119709 
	C73.591942,21.640404 71.413040,23.843805 69.392639,24.813684 
	C67.366051,25.786533 64.195717,26.212839 62.404018,25.248529 
	C61.011486,24.499054 60.967567,21.243832 60.652351,19.050158 
z"/>
<path fill="#F1F5F5" opacity="1.000000" stroke="none" 
	d="
M264.017517,62.384445 
	C262.649567,62.422527 261.276123,62.059811 260.121277,61.754826 
	C261.148956,56.785889 262.075195,52.307297 263.062744,47.408813 
	C263.982300,49.156780 265.471863,51.304787 265.540833,53.497463 
	C265.629181,56.307388 264.574310,59.153259 264.017517,62.384445 
z"/>
<path fill="#FCFBFB" opacity="1.000000" stroke="none" 
	d="
M164.244415,10.807631 
	C163.581238,10.999230 163.162476,10.998507 162.430206,10.995901 
	C162.056686,9.928696 161.996674,8.863373 161.972565,7.398904 
	C162.835236,8.204940 163.662033,9.410124 164.244415,10.807631 
z"/>
<path fill="#F7F5F6" opacity="1.000000" stroke="none" 
	d="
M59.594967,51.063271 
	C59.881390,52.175854 59.818687,53.356739 59.573654,54.840027 
	C59.342831,53.805477 59.294334,52.468525 59.594967,51.063271 
z"/>
<path fill="#F7F7F7" opacity="1.000000" stroke="none" 
	d="
M153.960999,68.738983 
	C150.052597,74.588974 149.906876,80.408920 153.839355,86.568924 
	C152.728561,86.585449 151.463257,86.467850 151.094620,85.831131 
	C148.107376,80.671280 143.304596,79.815842 138.070709,79.627457 
	C139.770874,79.009933 141.416214,78.844818 143.018341,78.486580 
	C144.372665,78.183762 145.676971,77.657181 147.003403,77.229630 
	C149.690536,73.933319 145.987808,73.544075 144.330750,71.949547 
	C144.316635,70.772049 144.630112,69.720116 145.379364,68.333130 
	C148.467880,68.932739 151.610855,64.477486 153.960999,68.738983 
z"/>
<path fill="#ECEBED" opacity="1.000000" stroke="none" 
	d="
M154.281219,68.662628 
	C151.610855,64.477486 148.467880,68.932739 145.407867,68.001633 
	C140.936386,67.607887 136.663406,67.838730 132.884567,66.582787 
	C130.536804,65.802483 128.937698,62.769611 126.999123,60.377110 
	C133.375137,65.677254 140.321228,67.388390 148.624283,64.203766 
	C151.816940,62.979221 155.682037,63.507896 159.607727,63.090347 
	C159.983002,63.697262 159.991318,64.451561 160.001190,65.582443 
	C158.202301,66.834770 156.401886,67.710518 154.281219,68.662628 
z"/>
<path fill="#EEEBED" opacity="1.000000" stroke="none" 
	d="
M81.999092,60.378403 
	C88.316765,65.536430 95.176834,67.384087 103.416573,64.266609 
	C106.272758,63.185978 109.831467,63.962158 113.487175,63.830696 
	C112.616035,64.788406 111.414284,66.528595 110.022736,66.696579 
	C104.290489,67.388596 98.482574,68.069176 92.737633,67.846542 
	C88.113907,67.667366 83.589661,66.111046 81.999092,60.378403 
z"/>
<path fill="#F6F8F8" opacity="1.000000" stroke="none" 
	d="
M200.367340,63.942482 
	C200.979126,65.547089 201.590897,67.151695 202.943604,68.862228 
	C206.411743,68.653358 209.138931,68.338570 211.866119,68.023773 
	C213.537842,72.855339 211.206787,77.694328 205.930984,80.344383 
	C200.239059,83.203453 193.416870,81.949249 190.148727,77.442932 
	C186.244843,72.060036 187.024872,64.302666 192.486145,60.238846 
	C195.505081,61.603741 197.936218,62.773109 200.367340,63.942482 
z"/>
<path fill="#F9FAFA" opacity="1.000000" stroke="none" 
	d="
M179.995728,61.001373 
	C180.972641,59.433411 181.949554,57.865452 183.483734,55.403072 
	C183.713257,55.445553 184.983963,55.680717 186.670853,56.296959 
	C187.512131,57.173161 187.937195,57.668289 188.362274,58.163422 
	C184.001495,63.486687 182.962326,69.495338 185.746231,75.690445 
	C187.532303,79.665054 186.564850,82.259041 182.703842,85.279785 
	C180.091461,82.463432 177.619354,79.465141 174.800156,76.839485 
	C170.875427,73.184196 166.690826,69.807899 162.309174,66.148468 
	C162.605179,60.746960 165.375763,62.118530 168.666321,64.258957 
	C169.363129,65.061348 169.682175,65.528694 170.031067,66.289505 
	C170.707672,66.720901 171.354401,66.858818 172.402588,66.996933 
	C177.048599,67.214340 179.699982,65.520615 179.995728,61.001373 
z"/>
<path fill="#FCFDFD" opacity="1.000000" stroke="none" 
	d="
M137.997147,79.996155 
	C143.304596,79.815842 148.107376,80.671280 151.094620,85.831131 
	C151.463257,86.467850 152.728561,86.585449 153.976288,86.914841 
	C153.989349,91.517036 150.201431,96.030609 145.873825,97.014900 
	C140.873566,98.152176 137.567093,96.349068 134.566162,90.244377 
	C135.252274,87.540115 135.622467,85.267715 136.019958,82.674408 
	C136.697205,81.567711 137.347168,80.781929 137.997147,79.996155 
z"/>
<path fill="#F9FAFA" opacity="1.000000" stroke="none" 
	d="
M166.268463,74.884003 
	C166.971954,77.876831 168.042114,80.838989 168.295624,83.869446 
	C168.707504,88.793274 165.529419,90.902214 161.465637,88.061150 
	C158.546936,86.020645 156.628296,82.549728 154.591095,79.293121 
	C157.615906,74.447945 161.496597,73.396950 166.268463,74.884003 
z"/>
<path fill="#EFF4F4" opacity="1.000000" stroke="none" 
	d="
M252.705154,54.808098 
	C252.363586,52.309006 251.481720,49.922577 252.160110,48.124985 
	C252.815903,46.387321 255.079025,45.256260 256.636108,43.858749 
	C257.727875,45.436302 259.828888,47.092827 259.712830,48.575871 
	C259.422455,52.286591 258.126801,55.918659 256.918030,60.881508 
	C255.040344,58.250793 253.943848,56.714561 252.705154,54.808098 
z"/>
<path fill="#D073A2" opacity="1.000000" stroke="none" 
	d="
M210.551849,49.059067 
	C209.922791,44.665203 209.293732,40.271343 208.664658,35.877480 
	C215.358719,37.183388 215.287460,42.257755 216.552032,46.643246 
	C214.308762,47.740021 212.430313,48.399540 210.551849,49.059067 
z"/>
<path fill="#F1F5F5" opacity="1.000000" stroke="none" 
	d="
M138.070709,79.627457 
	C137.347168,80.781929 136.697205,81.567711 135.667725,82.729477 
	C134.337906,83.813164 133.387604,84.520882 132.437317,85.228592 
	C131.395172,80.996758 132.257568,77.192726 135.936264,74.757675 
	C139.903900,72.131371 143.044800,75.258713 146.643646,77.133720 
	C145.676971,77.657181 144.372665,78.183762 143.018341,78.486580 
	C141.416214,78.844818 139.770874,79.009933 138.070709,79.627457 
z"/>
<path fill="#ECF2F2" opacity="1.000000" stroke="none" 
	d="
M166.203079,74.526550 
	C161.496597,73.396950 157.615906,74.447945 154.600769,78.945541 
	C154.362549,77.400040 153.855820,75.358162 154.650650,74.248817 
	C156.066376,72.272850 158.340561,69.481422 160.124405,69.573555 
	C162.202393,69.680878 164.139465,72.517082 166.203079,74.526550 
z"/>
<path fill="#DFE5E6" opacity="1.000000" stroke="none" 
	d="
M210.625122,49.443192 
	C212.430313,48.399540 214.308762,47.740021 216.541519,47.018227 
	C217.099243,50.778801 217.302673,54.601654 217.286194,58.369793 
	C216.884216,54.590115 214.537643,53.211174 211.201843,52.904408 
	C211.034042,51.878712 210.866226,50.853016 210.625122,49.443192 
z"/>
<path fill="#D179A7" opacity="1.000000" stroke="none" 
	d="
M211.196686,53.298325 
	C214.537643,53.211174 216.884216,54.590115 217.054413,58.700874 
	C216.250977,60.364185 215.459412,61.641701 213.879593,64.191391 
	C212.745972,59.763699 211.968735,56.727970 211.196686,53.298325 
z"/>
<path fill="#E6E9E9" opacity="1.000000" stroke="none" 
	d="
M211.879822,67.678925 
	C209.138931,68.338570 206.411743,68.653358 203.266937,68.946587 
	C203.318146,67.813980 203.786957,66.702942 204.360992,65.230438 
	C206.336670,64.633026 208.207153,64.397072 210.430145,64.120064 
	C211.152954,65.164024 211.523239,66.249054 211.879822,67.678925 
z"/>
<path fill="#D179A7" opacity="1.000000" stroke="none" 
	d="
M200.296326,63.561272 
	C197.936218,62.773109 195.505081,61.603741 192.819351,60.155869 
	C196.593185,57.557228 198.926346,59.169235 200.296326,63.561272 
z"/>
<path fill="#E5DFE3" opacity="1.000000" stroke="none" 
	d="
M205.979095,37.436672 
	C204.351501,37.773155 202.786530,37.773155 201.068649,37.773155 
	C201.131836,34.167645 203.055466,33.035774 206.379517,33.022163 
	C206.514862,34.392006 206.278290,35.746098 205.979095,37.436672 
z"/>
<path fill="#F7F7F7" opacity="1.000000" stroke="none" 
	d="
M132.516159,85.585022 
	C133.387604,84.520882 134.337906,83.813164 135.640442,83.050385 
	C135.622467,85.267715 135.252274,87.540115 134.513855,89.905739 
	C133.628769,88.646461 133.111877,87.293961 132.516159,85.585022 
z"/>
<path fill="#EDE8EB" opacity="1.000000" stroke="none" 
	d="
M188.615112,58.098186 
	C187.937195,57.668289 187.512131,57.173161 187.047577,56.338558 
	C187.034225,55.156227 187.060349,54.313370 187.150116,53.047890 
	C188.029205,53.882183 188.844681,55.139091 189.808762,56.678963 
	C189.594223,57.318932 189.231079,57.675941 188.615112,58.098186 
z"/>
<path fill="#F8F5F6" opacity="1.000000" stroke="none" 
	d="
M148.651855,47.085537 
	C147.135330,50.517746 141.110703,53.265686 138.688568,51.162655 
	C137.588898,50.207851 137.961502,47.557392 138.238602,45.292210 
	C142.801025,42.425884 145.592026,45.363277 148.651855,47.085537 
z"/>
<path fill="#EDE8EB" opacity="1.000000" stroke="none" 
	d="
M148.775574,46.802612 
	C145.592026,45.363277 142.801025,42.425884 138.434204,44.959320 
	C139.304413,43.355503 140.514282,40.338581 141.805344,40.303417 
	C145.549896,40.201427 148.071960,42.672924 148.775574,46.802612 
z"/>
<path fill="#F8F5F6" opacity="1.000000" stroke="none" 
	d="
M103.652245,47.085499 
	C102.135796,50.517780 96.110847,53.265938 93.688522,51.162880 
	C92.588760,50.208073 92.961296,47.557453 93.238342,45.292213 
	C97.800995,42.425682 100.592102,45.363651 103.652245,47.085499 
z"/>
<path fill="#EDE8EB" opacity="1.000000" stroke="none" 
	d="
M103.775948,46.802193 
	C100.592102,45.363651 97.800995,42.425682 93.433960,44.959324 
	C94.272476,43.351093 95.449043,40.324734 96.710312,40.289009 
	C100.492210,40.181896 103.058411,42.628593 103.775948,46.802193 
z"/>
<path fill="#EEEBED" opacity="1.000000" stroke="none" 
	d="
M170.001221,65.996033 
	C169.682175,65.528694 169.363129,65.061348 169.021744,64.296997 
	C168.998062,63.551125 168.996750,63.102253 169.002136,62.316635 
	C172.295197,64.803749 175.402328,65.042877 178.521729,61.152626 
	C179.005325,60.972172 179.203384,60.979321 179.698578,60.993919 
	C179.699982,65.520615 177.048599,67.214340 172.235519,66.751556 
	C171.111740,66.335991 170.556473,66.166016 170.001221,65.996033 
z"/>
<path fill="#F4F0F2" opacity="1.000000" stroke="none" 
	d="
M169.134323,19.015686 
	C171.698196,21.714437 174.402649,23.796946 178.447235,20.085514 
	C178.551804,21.332647 178.811050,23.697958 178.099869,24.038862 
	C176.258331,24.921612 173.505844,25.809362 172.024231,25.011169 
	C170.487686,24.183392 170.016769,21.377615 169.134323,19.015686 
z"/>
<path fill="#F7F7F7" opacity="1.000000" stroke="none" 
	d="
M170.031067,66.289505 
	C170.556473,66.166016 171.111740,66.335991 171.834076,66.751358 
	C171.354401,66.858818 170.707672,66.720901 170.031067,66.289505 
z"/>
</svg>